<?xml version="1.0" encoding="UTF-8"?>
<!DOCTYPE svg PUBLIC "-//W3C//DTD SVG 1.1//EN" "http://www.w3.org/Graphics/SVG/1.1/DTD/svg11.dtd">
<!-- Creator: CorelDRAW 2021 (64-Bit) -->
<svg xmlns="http://www.w3.org/2000/svg" xml:space="preserve" width="120px" height="120px" version="1.1" style="shape-rendering:geometricPrecision; text-rendering:geometricPrecision; image-rendering:optimizeQuality; fill-rule:evenodd; clip-rule:evenodd"
viewBox="0 0 104 104"
 xmlns:xlink="http://www.w3.org/1999/xlink"
 xmlns:xodm="http://www.corel.com/coreldraw/odm/2003">
 <defs>
  <style type="text/css">
   <![CDATA[
    .fil0 {fill:white}
    .fil2 {fill:#14A16D;fill-rule:nonzero}
    .fil5 {fill:#24AE7C;fill-rule:nonzero}
    .fil1 {fill:#24AE7C;fill-rule:nonzero}
    .fil4 {fill:#25946B;fill-rule:nonzero}
    .fil3 {fill:#25946B;fill-rule:nonzero}
   ]]>
  </style>
 </defs>
 <g id="Layer_x0020_1">
  <metadata id="CorelCorpID_0Corel-Layer"/>
  <g id="_2990747544752">
   <path class="fil0" d="M13 7c13,-5 26,-7 39,-7 13,0 28,2 40,7 10,4 12,36 12,45 0,9 -3,41 -12,45 -12,5 -27,7 -40,7 -14,0 -25,-1 -39,-7 -10,-4 -13,-36 -13,-45 0,-9 3,-41 13,-45z"/>
   <path class="fil1" d="M67 57c0,10 -13,18 -14,18 0,0 0,0 -1,0 0,0 -1,0 -1,0 -1,0 -16,-9 -14,-20 1,-4 2,-6 5,-7 4,-2 8,0 10,1 2,-1 6,-3 10,-1 3,1 4,3 5,7 0,1 0,2 0,2z"/>
   <path class="fil1" d="M90 32c0,0 -9,-2 -11,8 10,2 11,-8 11,-8z"/>
   <path class="fil1" d="M81 17c0,0 -9,1 -7,11 10,-2 7,-11 7,-11z"/>
   <path class="fil1" d="M14 32c0,0 9,-2 11,8 -10,2 -11,-8 -11,-8z"/>
   <path class="fil1" d="M24 17c0,0 9,1 7,11 -10,-2 -7,-11 -7,-11z"/>
   <path class="fil1" d="M49 30l-10 17 -3 5 -1 1 -1 13c-1,-1 -7,-2 -7,-2 0,-5 -4,-12 -5,-13 0,0 0,0 0,0l16 -26c1,-2 3,-3 5,-3 0,0 0,0 0,0 2,0 3,2 4,3 1,1 1,3 0,5z"/>
   <path class="fil2" d="M39 47l-3 6 -1 13c-1,-1 -7,-2 -7,-2 -1,-5 -4,-12 -5,-13 3,0 9,0 16,-4z"/>
   <path class="fil1" d="M50 87c-7,-1 -26,-5 -31,-9 -4,-4 -5,-19 -5,-29 0,-4 5,-6 7,-3 5,5 6,13 7,16 0,0 0,0 0,0 0,0 1,1 1,1 0,0 0,0 0,0 1,0 1,0 2,0 7,2 12,7 15,12 2,3 4,7 5,9 1,1 0,2 -2,2z"/>
   <path class="fil3" d="M31 64l-1 3c0,1 -1,0 -1,0l-1 -4 0 0c0,1 1,1 1,1 1,0 1,0 2,0z"/>
   <path class="fil4" d="M46 75c-4,-4 -17,-8 -17,-8l0 -4c0,0 0,0 0,0 1,0 1,0 2,0 7,2 12,7 15,12z"/>
   <path class="fil5" d="M56 30l10 17 3 5 1 1 1 13c1,-1 7,-2 7,-2 0,-5 4,-12 5,-13 0,0 0,0 0,0l-16 -26c-1,-2 -3,-3 -5,-3 0,0 0,0 0,0 -2,0 -3,2 -4,3 -1,1 -1,3 0,5z"/>
   <path class="fil2" d="M65 47l3 6 1 13c1,-1 7,-2 7,-2 1,-5 4,-12 5,-13 -3,0 -9,0 -16,-4z"/>
   <path class="fil1" d="M91 49c0,0 0,1 0,1 0,2 0,5 0,8 0,8 -2,17 -5,20 -5,4 -24,8 -31,9 -1,0 -2,-1 -2,-2 1,-2 3,-6 5,-9 3,-4 7,-8 11,-10 1,-1 2,-1 4,-1 1,0 1,0 2,0 0,0 0,0 0,0 0,0 0,0 0,0 0,0 0,0 0,0 0,0 0,0 0,0 0,0 0,0 0,0 0,0 0,0 0,0 0,0 0,0 0,0 0,0 0,0 0,-1 0,0 0,0 0,0 0,0 0,0 0,0 0,0 0,-1 0,-2 0,0 0,0 0,0 1,-2 2,-6 4,-10 0,0 0,0 0,-1 1,-1 2,-3 3,-4 2,-3 7,-1 7,3z"/>
   <path class="fil3" d="M74 64l1 3c0,1 1,0 1,0l1 -4 0 0c0,1 -1,1 -1,1 -1,0 -1,0 -2,0z"/>
   <path class="fil4" d="M59 75c4,-4 17,-8 17,-8l0 -4c0,0 0,0 0,0 -1,0 -1,0 -2,0 -7,2 -12,7 -15,12z"/>
   <g>
    <path class="fil3" d="M80 39c0,0 0,0 0,0 0,0 0,0 0,0l0 0zm10 -7l-10 7 0 0 10 -7 0 0zm0 0c0,0 0,0 0,0 0,0 0,0 0,0l0 0z"/>
   </g>
   <g>
    <path class="fil3" d="M74 28c0,0 0,0 0,0 0,0 0,0 0,0l0 0zm7 -10l-7 10 0 0 6 -10 0 0zm0 0c0,0 0,0 0,0 0,0 0,0 0,0l0 0z"/>
   </g>
   <g>
    <path class="fil3" d="M24 18c0,0 0,0 0,0 0,0 0,0 0,0l0 0zm7 10l-7 -10 0 0 7 10 0 0zm0 0c0,0 0,0 0,0 0,0 0,0 0,0l0 0z"/>
   </g>
   <g>
    <path class="fil2" d="M15 32c0,0 0,0 0,0 0,0 0,0 0,0l0 0zm9 7l-9 -7 0 0 9 7 0 0zm0 0c0,0 0,0 0,0 0,0 0,0 0,0l0 0z"/>
   </g>
   <path class="fil2" d="M67 57c0,10 -13,18 -14,18 0,0 0,0 -1,0 0,0 12,-8 10,-20 -1,-7 -10,-6 -10,-6 2,-1 6,-3 10,-1 3,1 4,3 5,7 0,1 0,2 0,2z"/>
   <path class="fil3" d="M91 50c0,2 0,5 0,8 -2,0 -3,0 -3,0 0,-4 1,-8 1,-8 1,0 2,0 2,0z"/>
   <path class="fil3" d="M14 50c0,2 0,5 0,8 2,0 3,0 3,0 0,-4 -1,-8 -1,-8 -1,0 -2,0 -2,0z"/>
  </g>
 </g>
</svg>
